<svg xmlns="http://www.w3.org/2000/svg" xmlns:xlink="http://www.w3.org/1999/xlink" version="1.1" x="0px" y="0px" viewBox="0 0 100 125" style="enable-background:new 0 0 100 100;" xml:space="preserve"><style type="text/css">
	.st0{fill:none;stroke:#000000;stroke-width:2;stroke-linecap:round;stroke-linejoin:round;stroke-miterlimit:10;}
	.st1{fill:none;stroke:#000000;stroke-width:2;stroke-miterlimit:10;}
	.st2{fill:none;stroke:#000000;stroke-width:2;stroke-linecap:round;stroke-miterlimit:10;}
	.st3{fill:none;stroke:#000000;stroke-width:2;stroke-linecap:round;stroke-linejoin:round;}
	.st4{fill:none;stroke:#000000;stroke-width:2;stroke-linecap:round;stroke-linejoin:round;stroke-dasharray:2.9655,3.954;}
	.st5{fill:none;stroke:#000000;stroke-width:2;stroke-linecap:round;stroke-linejoin:round;stroke-dasharray:2.7633,3.6844;}
</style><path d="M44.5,22.1c-0.7,0.6-1.6,1.4-1.6,3c0,0.6,0.4,1,1,1s1-0.4,1-1c0-0.7,0.3-1,0.9-1.5c0.7-0.6,1.6-1.4,1.6-3  c0-1.6-0.9-2.4-1.6-3c-0.6-0.6-0.9-0.9-0.9-1.6s0.3-1,0.9-1.6c0.7-0.6,1.6-1.4,1.6-3c0-0.6-0.4-1-1-1s-1,0.4-1,1  c0,0.7-0.3,1-0.9,1.6c-0.7,0.6-1.6,1.4-1.6,3s0.9,2.4,1.6,3c0.6,0.6,0.9,0.9,0.9,1.6C45.5,21.2,45.2,21.5,44.5,22.1z"/><path d="M51.5,22.1c-0.7,0.6-1.6,1.4-1.6,3c0,0.6,0.4,1,1,1s1-0.4,1-1c0-0.7,0.3-1,0.9-1.5c0.7-0.6,1.6-1.4,1.6-3  c0-1.6-0.9-2.4-1.6-3c-0.6-0.6-0.9-0.9-0.9-1.6s0.3-1,0.9-1.6c0.7-0.6,1.6-1.4,1.6-3c0-0.6-0.4-1-1-1s-1,0.4-1,1  c0,0.7-0.3,1-0.9,1.6c-0.7,0.6-1.6,1.4-1.6,3s0.9,2.4,1.6,3c0.6,0.6,0.9,0.9,0.9,1.6C52.5,21.2,52.2,21.5,51.5,22.1z"/><path d="M81.4,42.7h-1.8c0-0.1,0-0.2,0-0.3V35c0-0.6-0.4-1-1-1H61.6c-0.1,0-0.1,0-0.2,0s-0.1,0-0.2,0H14.3c-0.6,0-1,0.4-1,1v7.4  c0,16.7,6.8,32,17.4,39.9h-18c-0.6,0-1,0.4-1,1s0.4,1,1,1h2.8l2,4.9c0.2,0.4,0.5,0.6,0.9,0.6h61.1c0.4,0,0.8-0.2,0.9-0.6l2-4.9h2.8  c0.6,0,1-0.4,1-1s-0.4-1-1-1h-23c6.7-4.9,11.9-12.8,14.8-22.2h4.4c4.3,0,7.8-3.9,7.8-8.7S85.7,42.7,81.4,42.7z M77.6,42.4  c0,1.9-0.1,3.7-0.3,5.5h-9.9c-0.1-0.2-0.2-0.4-0.4-0.5L62.4,45v-9h15.3V42.4z M57.1,49l4.2-2.2l4.2,2.2v9.2h-8.4V49z M15.3,36h45.1  v9l-4.7,2.5c-0.2,0.1-0.4,0.3-0.4,0.5H15.5c-0.2-1.8-0.3-3.7-0.3-5.6V36z M78.8,87.8H19.1l-1.4-3.5h41.2c0,0,0,0,0,0c0,0,0,0,0,0  h21.4L78.8,87.8z M58.6,82.3H34.1c-0.1-0.1-0.2-0.2-0.3-0.3c-9.6-5.9-16.3-18-18.1-32h39.4v9.2c0,0.6,0.4,1,1,1h10.4  c0.6,0,1-0.4,1-1v-9.2h9.6C75.3,64.3,68.5,76.5,58.6,82.3z M81.4,58.1h-3.8c1.1-4.3,1.8-8.8,2-13.5h1.8c3.2,0,5.8,3,5.8,6.7  S84.6,58.1,81.4,58.1z"/><text x="0" y="115" fill="#000000" font-size="5px" font-weight="bold" font-family="'Helvetica Neue', Helvetica, Arial-Unicode, Arial, Sans-serif">Created by Made</text><text x="0" y="120" fill="#000000" font-size="5px" font-weight="bold" font-family="'Helvetica Neue', Helvetica, Arial-Unicode, Arial, Sans-serif">from the Noun Project</text></svg>