<svg xmlns="http://www.w3.org/2000/svg" xmlns:xlink="http://www.w3.org/1999/xlink" version="1.1" x="0px" y="0px" viewBox="0 0 100 125" style="enable-background:new 0 0 100 100;" xml:space="preserve"><style type="text/css">
	.st0{fill:none;stroke:#000000;stroke-width:2;stroke-linecap:round;stroke-linejoin:round;stroke-miterlimit:10;}
</style><path d="M32.5,65.2H38l-0.5,5.6h-1.3c-0.6,0-1,0.4-1,1s0.4,1,1,1h1.1l-1.5,16.6c0,0.5,0.4,1,0.9,1.1c0,0,0.1,0,0.1,0  c0.5,0,1-0.4,1-0.9l1.5-16.8h10.2c0,7,0,16.1,0,16.7c0,0.6,0.4,1,1,1c0.6,0,1-0.4,1-1c0-0.1,0-9.5,0-16.7h10.2l1.5,16.8  c0,0.5,0.5,0.9,1,0.9c0,0,0.1,0,0.1,0c0.5,0,1-0.5,0.9-1.1l-1.5-16.6h1.1c0.6,0,1-0.4,1-1s-0.4-1-1-1h-1.3l-0.5-5.6h5.6  c0.6,0,1-0.4,1-1v-4.7c0-0.6-0.4-1-1-1h-1.9V20.3c0-0.6-0.4-1-1-1H51.6v-7.7c0-0.6-0.4-1-1-1s-1,0.4-1,1v7.7H35.4c-0.6,0-1,0.4-1,1  v38.3h-1.9c-0.6,0-1,0.4-1,1v4.7C31.5,64.8,31.9,65.2,32.5,65.2z M40,65.2h9.6c0,1,0,3.1,0,5.6h-10L40,65.2z M61.6,70.8H51.6  c0-2.6,0-4.6,0-5.6h9.6L61.6,70.8z M36.4,21.3h28.4v37.3H36.4V21.3z M33.5,60.5h1.9h30.4h1.9v2.7H33.5V60.5z"/><text x="0" y="115" fill="#000000" font-size="5px" font-weight="bold" font-family="'Helvetica Neue', Helvetica, Arial-Unicode, Arial, Sans-serif">Created by Made</text><text x="0" y="120" fill="#000000" font-size="5px" font-weight="bold" font-family="'Helvetica Neue', Helvetica, Arial-Unicode, Arial, Sans-serif">from the Noun Project</text></svg>