<?xml version="1.0" encoding="utf-8"?>
<!-- Generator: Adobe Illustrator 20.1.0, SVG Export Plug-In . SVG Version: 6.00 Build 0)  -->
<svg version="1.1" id="Ebene_1" xmlns="http://www.w3.org/2000/svg" xmlns:xlink="http://www.w3.org/1999/xlink" x="0px" y="0px"
	 viewBox="0 0 512 512" style="enable-background:new 0 0 512 512;" xml:space="preserve">
<style type="text/css">
	.st0{fill:#343434;}
	.st1{fill:#CADF9E;}
</style>
<circle class="st0" cx="256" cy="256" r="244.9"/>
<path id="briefcase-5-icon" class="st1" d="M352.9,219.4v14.8c0,3-1.5,5.8-3.9,7.6c-32.4,22.9-152.4,22.4-185.9-1
	c-2.5-1.7-3.9-4.6-3.9-7.6v-13.8H352.9L352.9,219.4z M369.4,202.9H142.6v33.8c0,50.4,226.8,51.9,226.8,1.1V202.9z M348.5,272.8v57.6
	H163.6v-58.5c-6.5-2.6-12-5.6-16.5-8.8V347H365v-82.8C360.5,267.4,355,270.3,348.5,272.8z M226.2,182.5c0-2.1,1.7-3.7,3.7-3.7H282
	c2.1,0,3.7,1.7,3.7,3.7v9.4h16.5v-16.8c0-6.5-5.2-11.7-11.7-11.7h-69.2c-6.5,0-11.7,5.2-11.7,11.7v16.8h16.5v-9.4H226.2z M268.5,286
	h-25v9.9c0,6.9,5.6,12.5,12.5,12.5s12.5-5.6,12.5-12.5V286L268.5,286z"/>
</svg>
