<?xml version="1.0" encoding="utf-8"?>
<!-- Generator: Adobe Illustrator 20.1.0, SVG Export Plug-In . SVG Version: 6.00 Build 0)  -->
<svg version="1.1" id="Ebene_1" xmlns="http://www.w3.org/2000/svg" xmlns:xlink="http://www.w3.org/1999/xlink" x="0px" y="0px"
	 viewBox="0 0 512 512" style="enable-background:new 0 0 512 512;" xml:space="preserve">
<style type="text/css">
	.st0{fill:#7A6E6E;}
</style>
<path id="certificate-12" class="st0" d="M309,299.9c-3.7,10.8-3.7,8.6,0,19.6c0.3,1.2,0.5,2.3,0.5,3.5c0,3.5-1.7,6.8-4.7,8.8
	c-9.6,6.6-8.3,5-12,15.8c-1.5,4.5-5.8,7.6-10.8,7.6l0,0c-11.8,0-9.8-0.7-19.4,6c-2,1.3-4.3,2.2-6.6,2.2s-4.7-0.7-6.6-2.2
	c-9.6-6.6-7.5-6.1-19.4-6l0,0c-5,0-9.3-3-10.8-7.6c-3.7-10.8-2.3-9.1-12-15.8c-3-2.2-4.7-5.5-4.7-8.8c0-1.2,0.2-2.3,0.5-3.5
	c3.7-10.8,3.7-8.6,0-19.6c-0.3-1.2-0.5-2.3-0.5-3.5c0-3.5,1.7-6.8,4.7-8.8c9.6-6.6,8.3-5,12-15.8c1.5-4.5,5.8-7.6,10.8-7.6l0,0
	c11.8,0,9.8,0.7,19.4-6c2-1.3,4.3-2.2,6.6-2.2s4.7,0.7,6.6,2.2c9.6,6.6,7.5,6.1,19.4,6l0,0c5,0,9.3,3,10.8,7.6
	c3.7,10.8,2.3,9.1,12,15.8c3,2.2,4.7,5.5,4.7,8.8C309.7,297.5,309.5,298.7,309,299.9z M282.7,309.5c0-14.8-12-26.7-26.7-26.7
	s-26.7,12-26.7,26.7s12,26.7,26.7,26.7C270.8,336.4,282.7,324.3,282.7,309.5z M235.9,370.3c-5.8,0-10.5-0.5-14.3-1.7
	c-2.3,23.4-10.5,41-26.7,58.1c6.5,0.8,15-0.7,21.6-4.3c2.5,4.8,5,11,5.8,17.3c15.4-17.6,24.9-38.7,28.6-61.8
	C243.7,376.4,241.5,374.1,235.9,370.3z M276.3,370.3c-5.6,3.8-8,6.3-15.1,7.6c3.7,23.1,13.1,44.2,28.6,61.8
	c0.8-6.3,3.5-12.3,5.8-17.3c6.8,3.5,15.1,5.1,21.6,4.3c-16.3-16.9-24.3-34.7-26.6-58.1C286.7,369.6,282.1,370.3,276.3,370.3z
	 M103,72.3v321.4h78.9c5.1-8.1,8.1-16.9,9.1-28.2l0.2-2.5h-57.6V103h244.9v260.1h-57.6l0.2,2.3c1.2,11.3,4,20.1,9.1,28.2H409V72.3
	H103z M347.9,148.9H164.1v15.3h183.7V148.9z M347.9,179.4H164.1v15.3h183.7V179.4z M347.9,210.1H164.1v15.3h183.7V210.1z"/>
</svg>
