<?xml version="1.0" encoding="utf-8"?>
<!-- Generator: Adobe Illustrator 20.1.0, SVG Export Plug-In . SVG Version: 6.00 Build 0)  -->
<svg version="1.1" id="Ebene_1" xmlns="http://www.w3.org/2000/svg" xmlns:xlink="http://www.w3.org/1999/xlink" x="0px" y="0px"
	 viewBox="0 0 566.9 566.9" style="enable-background:new 0 0 566.9 566.9;" xml:space="preserve">
<style type="text/css">
	.st0{fill:#7A7A7A;}
</style>
<path class="st0" d="M172.2,371.9h33.2l-3,33.8h-7.8c-3.6,0-6,2.4-6,6c0,3.6,2.4,6,6,6h6.6L192.1,518c0,3,2.4,6,5.4,6.6h0.6
	c3,0,6-2.4,6-5.4l9.1-101.4h61.6c0,42.3,0,97.2,0,100.8c0,3.6,2.4,6,6,6c3.6,0,6-2.4,6-6c0-0.6,0-57.4,0-100.8h61.6l9.1,101.4
	c0,3,3,5.4,6,5.4h0.6c3,0,6-3,5.4-6.6l-9.1-100.2h6.6c3.6,0,6-2.4,6-6c0-3.6-2.4-6-6-6h-7.8l-3-33.8h33.8c3.6,0,6-2.4,6-6v-28.4
	c0-3.6-2.4-6-6-6h-11.5V100.8c0-3.6-2.4-6-6-6h-85.1V48.3c0-3.6-2.4-6-6-6c-3.6,0-6,2.4-6,6v46.5h-85.7c-3.6,0-6,2.4-6,6v231.2
	h-11.5c-3.6,0-6,2.4-6,6v28.4C166.1,369.5,168.5,371.9,172.2,371.9z M217.4,371.9h58c0,6,0,18.7,0,33.8H215L217.4,371.9z
	 M347.8,405.7h-60.4c0-15.7,0-27.8,0-33.8h58L347.8,405.7z M195.7,106.9h171.5v225.2H195.7V106.9z M178.2,343.5h11.5h183.5h11.5
	v16.3H178.2V343.5z"/>
</svg>
