<?xml version="1.0" encoding="utf-8"?>
<!-- Generator: Adobe Illustrator 20.1.0, SVG Export Plug-In . SVG Version: 6.00 Build 0)  -->
<svg version="1.1" id="Ebene_1" xmlns="http://www.w3.org/2000/svg" xmlns:xlink="http://www.w3.org/1999/xlink" x="0px" y="0px"
	 viewBox="0 0 512 512" style="enable-background:new 0 0 512 512;" xml:space="preserve">
<style type="text/css">
	.st0{fill:#FFFFFF;}
</style>
<path id="instagram-6-icon" class="st0" d="M420.5,212.2h-35.9c2.6,10.1,4.2,20.7,4.2,31.7c0,70-56.8,126.8-126.8,126.8
	s-126.8-56.8-126.8-126.8c0-11,1.5-21.6,4.2-31.7h-35.9v174.3c0,8.7,7.1,15.8,15.9,15.8h285.2c8.8,0,15.9-7.1,15.9-15.8L420.5,212.2
	L420.5,212.2z M420.5,101.3c0-8.8-7.1-15.8-15.9-15.8h-47.5c-8.8,0-15.8,7.1-15.8,15.8v47.5c0,8.7,7.1,15.8,15.8,15.8h47.5
	c8.8,0,15.9-7.1,15.9-15.8V101.3z M262,164.7c-43.8,0-79.2,35.5-79.2,79.2c0,43.8,35.5,79.2,79.2,79.2c43.8,0,79.2-35.5,79.2-79.2
	S305.8,164.7,262,164.7 M420.5,449.9h-317c-26.2,0-47.5-21.3-47.5-47.6V85.5C56,59.2,77.3,38,103.5,38h316.9
	c26.2,0,47.5,21.3,47.5,47.5v316.9C468,428.6,446.7,449.9,420.5,449.9"/>
</svg>
