<?xml version="1.0" encoding="utf-8"?>
<!-- Generator: Adobe Illustrator 20.1.0, SVG Export Plug-In . SVG Version: 6.00 Build 0)  -->
<svg version="1.1" id="Ebene_1" xmlns="http://www.w3.org/2000/svg" xmlns:xlink="http://www.w3.org/1999/xlink" x="0px" y="0px"
	 viewBox="0 0 566.9 566.9" style="enable-background:new 0 0 566.9 566.9;" xml:space="preserve">
<style type="text/css">
	.st0{fill:#7A7A7A;}
</style>
<path class="st0" d="M211.8,324.2c7.9,0,15.3-3.2,20.6-8.4c5.3-5.3,8.4-12.7,8.4-20.6c0-7.9-3.2-15.3-8.4-20.6
	c-11.6-11.6-29.5-11.6-41.2,0c-5.3,5.3-8.4,12.7-8.4,20.6c0,7.9,3.2,15.3,8.4,20.6C196.5,321.6,203.9,324.2,211.8,324.2z M198.6,282
	c3.7-3.7,8.4-5.3,13.2-5.3c4.7,0,9.5,1.6,13.2,5.3c3.7,3.7,5.3,7.9,5.3,13.2c0,4.7-2.1,9.5-5.3,13.2c-6.9,6.9-19,6.9-26.4,0
	c-3.7-3.7-5.3-7.9-5.3-13.2C193.3,290.4,194.9,285.7,198.6,282z"/>
<path class="st0" d="M155.3,433.4c5.8,0,11.6-2.1,15.8-6.3c4.2-4.2,6.3-10,6.3-15.8s-2.1-11.6-6.3-15.8c-8.4-8.4-22.7-8.4-31.7,0
	c-8.4,8.4-8.4,22.7,0,31.7C143.7,431.3,149.5,433.4,155.3,433.4z M146.9,402.8c4.7-4.7,12.1-4.7,16.4,0c2.1,2.1,3.2,5.3,3.2,8.4
	c0,3.2-1.1,5.8-3.2,8.4c-4.7,4.7-12.1,4.7-16.4,0C142.2,414.9,142.2,407.6,146.9,402.8z"/>
<path class="st0" d="M281.4,362.7c4.2,4.2,10,6.3,15.8,6.3c5.8,0,11.6-2.1,15.8-6.3c8.4-8.4,8.4-22.7,0-31.7
	c-8.4-8.4-22.7-8.4-31.7,0c-4.2,4.2-6.3,10-6.3,15.8C274.6,352.7,277.2,358.5,281.4,362.7L281.4,362.7z M288.8,338.4
	c2.1-2.1,5.3-3.2,8.4-3.2s5.8,1.1,8.4,3.2c4.7,4.7,4.7,12.1,0,16.4c-4.2,4.2-12.1,4.2-16.4,0l0,0c-2.1-2.1-3.2-5.3-3.2-8.4
	S286.7,341.1,288.8,338.4z"/>
<path class="st0" d="M246.1,257.7c6.9,0,13.7-2.6,18.5-7.4c10-10,10-26.4,0-36.9c-10-10-26.9-10-36.9,0c-10,10-10,26.9,0,36.9
	C232.4,255.1,238.7,257.7,246.1,257.7z M235,220.8c5.8-5.8,15.8-5.8,21.6,0c5.8,5.8,5.8,15.8,0,21.6c-5.8,5.8-15.8,5.8-21.6,0
	C228.7,236.6,228.7,227.1,235,220.8z"/>
<path class="st0" d="M225,344.8c-6.9,0-13.7,2.6-18.5,7.4c-10,10-10,26.4,0,36.9c5.3,5.3,11.6,7.4,18.5,7.4c6.9,0,13.2-2.6,18.5-7.4
	c10-10,10-26.9,0-36.9C238.7,347.4,232.4,344.8,225,344.8z M236.1,381.7c-5.8,5.8-15.8,5.8-21.6,0c-5.8-5.8-5.8-15.8,0-21.6
	c5.8-5.8,15.8-5.8,21.6,0C242.4,365.9,242.4,375.4,236.1,381.7z"/>
<path class="st0" d="M330.5,316.3c9,0,17.4-3.7,23.7-10c6.3-6.3,10-14.8,10-23.7s-3.7-17.4-10-23.7s-14.8-10-23.7-10
	s-17.4,3.7-23.7,10s-10,14.8-10,23.7s3.7,17.4,10,23.7C313.1,312.6,321.5,316.3,330.5,316.3z M314.1,266.2c4.2-4.2,10-6.9,16.4-6.9
	c6.3,0,12.1,2.6,16.4,6.9c4.2,4.2,6.9,10,6.9,16.4s-2.6,12.1-6.9,16.4c-4.2,4.2-10,6.9-16.4,6.9c-6.3,0-12.1-2.6-16.4-6.9
	c-4.2-4.2-6.9-10-6.9-16.4S309.9,270.4,314.1,266.2z"/>
<path class="st0" d="M121,472.5c3.2,0,6.3-0.5,9.5-2.1l336.6-138.8c1.6-0.5,3.2-2.6,3.2-4.2c0-2.6,4.2-68.6-80.2-153.5
	c-84.4-84.4-149.8-79.7-152.5-79.1c-2.1,0-3.7,1.6-4.2,3.2L98.4,439.2c-3.7,9-1.6,19,5.8,26.4C108.9,470.3,114.7,472.5,121,472.5z
	 M241.9,105.2c13.7,0,70.7,5.8,140.9,76.5c70.7,70.7,76.5,128.2,77,141.9l-41.2,16.9c-2.1-7.4-6.3-14.2-10.6-21.1
	c-4.2-6.3-7.9-12.7-9.5-19c-1.6-5.8-1.1-13.2-1.1-20.6c0.5-11.1,1.1-22.7-4.7-32.7c-5.3-9.5-15.3-14.8-25.3-19.5
	c-6.9-3.7-13.7-6.9-17.9-11.6c-4.7-4.7-7.9-11.1-11.6-17.9c-5.3-9.5-10.6-19.5-19.5-25.3c-10-5.8-21.1-5.3-32.7-4.7
	c-7.4,0.5-14.8,0.5-20.6-1.1c-6.3-1.6-12.1-5.8-19-9.5c-6.3-4.2-13.2-8.4-20-10.6L241.9,105.2z M108.4,443.4l112.9-286.5h0.5
	c5.8,1.6,11.6,5.3,17.4,9.5c6.9,4.2,14.2,9,21.6,11.1c7.4,2.1,15.8,1.6,23.7,1.1c10-0.5,19.5-1.1,26.9,3.2
	c6.9,3.7,11.1,12.1,15.8,21.1c3.7,7.4,7.9,14.8,13.7,20.6s13.2,10,20.6,13.7c9,4.7,16.9,9,21.1,15.8c4.2,6.9,3.7,16.9,3.2,26.9
	c-0.5,7.9-0.5,16.4,1.1,23.7c2.1,7.9,6.3,14.8,11.1,21.6c4.2,6.9,8.4,13.2,9.5,19.5L126.3,460.8c-6.3,2.6-11.6,0-14.8-2.6
	C108.4,455,105.7,449.2,108.4,443.4z"/>
</svg>
