<?xml version="1.0" encoding="utf-8"?>
<!-- Generator: Adobe Illustrator 20.1.0, SVG Export Plug-In . SVG Version: 6.00 Build 0)  -->
<svg version="1.1" id="Ebene_1" xmlns="http://www.w3.org/2000/svg" xmlns:xlink="http://www.w3.org/1999/xlink" x="0px" y="0px"
	 viewBox="0 0 566.9 566.9" style="enable-background:new 0 0 566.9 566.9;" xml:space="preserve">
<style type="text/css">
	.st0{fill:#7A7A7A;}
</style>
<path class="st0" d="M254.4,139.8c-3.4,2.9-7.8,6.8-7.8,14.7c0,2.9,2,4.9,4.9,4.9s4.9-2,4.9-4.9c0-3.4,1.5-4.9,4.4-7.3
	c3.4-2.9,7.8-6.8,7.8-14.7c0-7.8-4.4-11.7-7.8-14.7c-2.9-2.9-4.4-4.4-4.4-7.8c0-3.4,1.5-4.9,4.4-7.8c3.4-2.9,7.8-6.8,7.8-14.7
	c0-2.9-2-4.9-4.9-4.9s-4.9,2-4.9,4.9c0,3.4-1.5,4.9-4.4,7.8c-3.4,2.9-7.8,6.8-7.8,14.7s4.4,11.7,7.8,14.7c2.9,2.9,4.4,4.4,4.4,7.8
	C259.3,135.4,257.8,136.9,254.4,139.8z"/>
<path class="st0" d="M288.6,139.8c-3.4,2.9-7.8,6.8-7.8,14.7c0,2.9,2,4.9,4.9,4.9c2.9,0,4.9-2,4.9-4.9c0-3.4,1.5-4.9,4.4-7.3
	c3.4-2.9,7.8-6.8,7.8-14.7c0-7.8-4.4-11.7-7.8-14.7c-2.9-2.9-4.4-4.4-4.4-7.8c0-3.4,1.5-4.9,4.4-7.8c3.4-2.9,7.8-6.8,7.8-14.7
	c0-2.9-2-4.9-4.9-4.9c-2.9,0-4.9,2-4.9,4.9c0,3.4-1.5,4.9-4.4,7.8c-3.4,2.9-7.8,6.8-7.8,14.7s4.4,11.7,7.8,14.7
	c2.9,2.9,4.4,4.4,4.4,7.8C293.5,135.4,292,136.9,288.6,139.8z"/>
<path class="st0" d="M434.8,240.5H426c0-0.5,0-1,0-1.5v-36.2c0-2.9-2-4.9-4.9-4.9H338c-0.5,0-0.5,0-1,0s-0.5,0-1,0H106.7
	c-2.9,0-4.9,2-4.9,4.9v36.2c0,81.6,33.2,156.4,85.1,195.1h-88c-2.9,0-4.9,2-4.9,4.9s2,4.9,4.9,4.9h13.7l9.8,24c1,2,2.4,2.9,4.4,2.9
	h298.7c2,0,3.9-1,4.4-2.9l9.8-24h13.7c2.9,0,4.9-2,4.9-4.9s-2-4.9-4.9-4.9H340.9c32.8-24,58.2-62.6,72.4-108.5h21.5
	c21,0,38.1-19.1,38.1-42.5S455.8,240.5,434.8,240.5z M416.2,239.1c0,9.3-0.5,18.1-1.5,26.9h-48.4c-0.5-1-1-2-2-2.4l-22.5-11.7v-44
	h74.8v31.3H416.2z M316,271.3l20.5-10.8l20.5,10.8v45H316V271.3z M111.6,207.8h220.5v44l-23,12.2c-1,0.5-2,1.5-2,2.4H112.6
	c-1-8.8-1.5-18.1-1.5-27.4v-31.3H111.6z M422.1,461H130.2l-6.8-17.1h201.4l0,0l0,0h104.6L422.1,461z M323.3,434.1H203.5
	c-0.5-0.5-1-1-1.5-1.5c-46.9-28.8-79.7-88-88.5-156.4h192.6v45c0,2.9,2,4.9,4.9,4.9h50.8c2.9,0,4.9-2,4.9-4.9v-45h46.9
	C405,346.1,371.7,405.8,323.3,434.1z M434.8,315.8h-18.6c5.4-21,8.8-43,9.8-66h8.8c15.6,0,28.4,14.7,28.4,32.8
	C463.1,300.7,450.4,315.8,434.8,315.8z"/>
</svg>
