<?xml version="1.0" encoding="utf-8"?>
<!-- Generator: Adobe Illustrator 20.1.0, SVG Export Plug-In . SVG Version: 6.00 Build 0)  -->
<svg version="1.1" id="Ebene_1" xmlns="http://www.w3.org/2000/svg" xmlns:xlink="http://www.w3.org/1999/xlink" x="0px" y="0px"
	 viewBox="0 0 512 512" style="enable-background:new 0 0 512 512;" xml:space="preserve">
<style type="text/css">
	.st0{fill:#FFFFFF;}
</style>
<path class="st0" d="M267.5,198.5v157.2c0,13.6,0.8,23.6,2.3,30c3.1,12.9,10.3,17.2,18.4,23.9c15.2,12.5,63.2,24.1,96.5-3.5
	l4.6,52.9c-13.8,16.4-90.8,28.7-127.1,22.5c-24.4-4.3-46.1-7-63.9-21.1c-16.9-13.4-26.9-34.1-29.8-62.2c-0.9-7.7-1.3-23.5-1.3-47.4
	V198.5l-44.7,0.6v-44.8C154,151,210,111.7,221.1,28.9h46.4l1.2,117.4l101.2,0.6l-1.1,52.2L267.5,198.5L267.5,198.5z"/>
</svg>
